<svg xmlns="http://www.w3.org/2000/svg" width="512" height="512"><path d="M501.98 246h-43.998v-19.292c0-4.592-3.127-8.593-7.583-9.704l-29.612-7.377-15.482-37.359 15.714-26.142a9.998 9.998 0 0 0-1.5-12.222L378.085 92.47a10.001 10.001 0 0 0-12.223-1.5l-26.142 15.714-37.36-15.482-7.377-29.612a10 10 0 0 0-9.704-7.583H265.99V10.009c0-5.523-4.477-10-10-10s-10 4.477-10 10v43.998h-19.292a10.001 10.001 0 0 0-9.704 7.583l-7.377 29.612-37.359 15.482-26.142-15.714a9.996 9.996 0 0 0-12.222 1.5L92.46 133.904a10 10 0 0 0-1.5 12.222l15.714 26.142-15.482 37.359-29.612 7.377a10 10 0 0 0-7.583 9.704V246H10c-5.523 0-10 4.477-10 10 0 5.522 4.477 10 10 10h43.998v19.292a9.998 9.998 0 0 0 7.583 9.703l29.612 7.378 15.482 37.359-15.715 26.142a10 10 0 0 0 1.5 12.224l41.434 41.434a10.003 10.003 0 0 0 12.224 1.499l26.141-15.714 37.36 15.482 7.377 29.611a10 10 0 0 0 9.704 7.583h19.291v43.998c0 5.522 4.477 10 10 10s10-4.478 10-10v-43.998h19.292c4.592 0 8.593-3.127 9.704-7.583l7.377-29.611 37.36-15.482 26.141 15.714a10.003 10.003 0 0 0 12.224-1.499l41.434-41.434a10.002 10.002 0 0 0 1.499-12.224l-15.714-26.142 15.482-37.359 29.612-7.378a9.998 9.998 0 0 0 7.583-9.703V266h43.998c5.523 0 10-4.478 10-10-.003-5.523-4.48-10-10.003-10zm-63.997 31.478l-26.921 6.708a10.003 10.003 0 0 0-6.821 5.875l-19.342 46.674a10 10 0 0 0 .668 8.98l14.286 23.766-30.383 30.384-23.766-14.286a9.996 9.996 0 0 0-8.981-.668l-46.674 19.343a10 10 0 0 0-5.875 6.821l-6.707 26.92h-42.956l-6.707-26.92a10 10 0 0 0-5.875-6.821l-46.674-19.343a9.996 9.996 0 0 0-8.981.668l-23.766 14.286-30.383-30.384 14.286-23.766a10 10 0 0 0 .667-8.98l-19.342-46.674a10.003 10.003 0 0 0-6.821-5.875l-26.92-6.708v-42.956l26.921-6.707a10.003 10.003 0 0 0 6.821-5.875l19.342-46.674a10.003 10.003 0 0 0-.667-8.98l-14.286-23.766 30.383-30.383 23.766 14.286a9.996 9.996 0 0 0 8.98.667l46.674-19.342a10.003 10.003 0 0 0 5.875-6.821l6.707-26.921h42.956l6.707 26.921a10.003 10.003 0 0 0 5.875 6.821l46.674 19.342a10.002 10.002 0 0 0 8.98-.667l23.766-14.286 30.383 30.383-14.286 23.766a10 10 0 0 0-.667 8.98l19.342 46.674a10.003 10.003 0 0 0 6.821 5.875l26.921 6.707v42.956z" fill="#FFF"/><path d="M300.089 135.808c-5.184-1.9-10.93.758-12.833 5.942-1.903 5.185.758 10.93 5.942 12.833 42.34 15.539 70.787 56.296 70.787 101.418 0 59.55-48.447 107.996-107.996 107.996S147.994 315.55 147.994 256c0-42.696 25.228-81.47 64.27-98.78 5.049-2.238 7.327-8.146 5.088-13.194-2.238-5.048-8.147-7.327-13.194-5.088-46.266 20.513-76.162 66.463-76.162 117.062 0 70.576 57.418 127.995 127.995 127.995S383.985 326.576 383.985 256c0-53.474-33.716-101.776-83.896-120.192z" fill="#FFF"/><path d="M256.52 128.006l-.53-.001c-5.523 0-10 4.477-10 10s4.477 10 10 10l.471.001h.03c5.509 0 9.983-4.458 10-9.971.016-5.523-4.448-10.013-9.971-10.029zM325.654 216.221c-5.523 0-10 4.477-10 10v58.285c0 5.522 4.477 10 10 10s10-4.478 10-10V226.22c0-5.523-4.477-9.999-10-9.999zM277.16 216.221h-20.602c-5.523 0-10 4.477-10 10v58.284c0 5.522 4.477 10 10 10s10-4.478 10-10V269.8h10.603c13.95 0 25.3-11.351 25.3-25.3v-2.979c-.001-13.951-11.35-25.3-25.301-25.3zm5.301 28.278a5.307 5.307 0 0 1-5.301 5.301h-10.603v-13.581h10.603a5.307 5.307 0 0 1 5.301 5.301v2.979zM235.847 282.092l-25.666-59.814a10 10 0 0 0-18.379-.001l-25.666 59.814c-2.178 5.075.171 10.955 5.247 13.132 5.076 2.177 10.955-.171 13.133-5.246l16.476-38.399 16.477 38.399a10.002 10.002 0 0 0 9.194 6.06 9.977 9.977 0 0 0 3.938-.813c5.075-2.177 7.424-8.057 5.246-13.132zM478.001.01c-18.747 0-33.999 15.251-33.999 33.999a33.766 33.766 0 0 0 3.952 15.884l-38.259 38.258c-3.905 3.905-3.905 10.237 0 14.142 1.953 1.952 4.513 2.928 7.072 2.928s5.119-.976 7.071-2.929l38.251-38.251A33.786 33.786 0 0 0 478 68.007c18.747 0 33.999-15.251 33.999-33.999S496.749.01 478.001.01zm0 47.998c-7.72 0-13.999-6.28-13.999-13.999 0-7.72 6.28-13.999 13.999-13.999 7.72 0 13.999 6.28 13.999 13.999.001 7.719-6.279 13.999-13.999 13.999zM102.283 409.705c-3.905-3.903-10.237-3.903-14.141.001l-38.245 38.245a33.782 33.782 0 0 0-15.898-3.959C15.251 443.993 0 459.244 0 477.991s15.251 33.999 33.999 33.999 33.999-15.251 33.999-33.999a33.777 33.777 0 0 0-3.959-15.898l38.245-38.246c3.904-3.904 3.904-10.236-.001-14.142zm-68.284 82.286c-7.72 0-13.999-6.28-13.999-13.999 0-7.72 6.28-13.999 13.999-13.999 7.72 0 13.999 6.28 13.999 13.999s-6.28 13.999-13.999 13.999zM423.843 409.704a10.117 10.117 0 0 0-7.08-2.93c-2.63 0-5.21 1.069-7.07 2.93a10.072 10.072 0 0 0-2.93 7.07c0 2.63 1.07 5.21 2.93 7.069a10.077 10.077 0 0 0 7.07 2.931c2.64 0 5.21-1.07 7.08-2.931a10.046 10.046 0 0 0 2.92-7.069c0-2.631-1.06-5.211-2.92-7.07zM478.001 443.993a33.769 33.769 0 0 0-15.911 3.966l-16.894-16.894c-3.905-3.903-10.237-3.904-14.141 0-3.905 3.905-3.906 10.237 0 14.142l16.9 16.901a33.79 33.79 0 0 0-3.952 15.884c0 18.747 15.251 33.999 33.999 33.999S512 496.74 512 477.992s-15.251-33.999-33.999-33.999zm0 47.998c-7.72 0-13.999-6.28-13.999-13.999 0-7.72 6.28-13.999 13.999-13.999 7.72 0 13.999 6.28 13.999 13.999.001 7.719-6.279 13.999-13.999 13.999zM102.283 88.151L64.039 49.907a33.782 33.782 0 0 0 3.959-15.898C67.998 15.262 52.747.01 33.999.01S0 15.261 0 34.009s15.251 33.999 33.999 33.999a33.777 33.777 0 0 0 15.898-3.959l38.245 38.244c1.953 1.953 4.512 2.929 7.071 2.929s5.119-.976 7.071-2.929c3.904-3.905 3.904-10.237-.001-14.142zM33.999 48.008c-7.72 0-13.999-6.28-13.999-13.999 0-7.72 6.28-13.999 13.999-13.999 7.72 0 13.999 6.28 13.999 13.999s-6.28 13.999-13.999 13.999z" fill="#FFF"/></svg>