<svg xmlns="http://www.w3.org/2000/svg" viewBox="0 0 480.106 480.106" width="512" height="512"><path d="M360.106 176.056c-26.51 0-48 21.49-48 48s21.49 48 48 48 48-21.49 48-48c-.026-26.498-21.501-47.973-48-48zm0 80c-17.673 0-32-14.327-32-32s14.327-32 32-32c17.673 0 32 14.327 32 32s-14.327 32-32 32zM192.106 319.888c-13.255-17.673-38.327-21.255-56-8s-21.255 38.327-8 56a40.003 40.003 0 0 0 8 8v56.168a8 8 0 0 0 8 8h32a8 8 0 0 0 8-8v-56.168c17.673-13.255 21.255-38.327 8-56zm-20 44.816a8.001 8.001 0 0 0-4 6.912v52.44h-16v-52.44a8.001 8.001 0 0 0-4-6.912 23.745 23.745 0 0 1-12-20.648c0-13.255 10.745-24 24-24s24 10.745 24 24a23.745 23.745 0 0 1-12 20.648z" fill="#FFF"/><path d="M478.735 96.046a23.943 23.943 0 0 0-22.629-15.989c-13.224-.025-23.964 10.675-23.989 23.899a23.944 23.944 0 0 0 15.989 22.629v89.472h-.408c-3.907-42.234-37.359-75.685-79.592-79.592v-25.88c12.497-4.418 19.046-18.131 14.627-30.627s-18.131-19.046-30.627-14.627c-12.497 4.418-19.046 18.131-14.627 30.627a23.998 23.998 0 0 0 14.627 14.627v25.88c-48.4 4.413-84.059 47.226-79.647 95.626a87.983 87.983 0 0 0 9.415 32.326 7.787 7.787 0 0 0-1.768-.36h-24v-32c0-2.704-.184-5.352-.408-8h.408v-192h105.472c4.418 12.497 18.131 19.046 30.627 14.627s19.046-18.131 14.627-30.627C402.414 3.56 388.701-2.989 376.205 1.43a23.998 23.998 0 0 0-14.627 14.627H248.106a8 8 0 0 0-8 8v155.048a95.998 95.998 0 0 0-72-42.64V24.056a8 8 0 0 0-8-8H46.634C42.216 3.559 28.503-2.989 16.007 1.429S-3.039 19.559 1.379 32.056C5.797 44.553 19.51 51.102 32.007 46.684a23.998 23.998 0 0 0 14.627-14.627h105.472v104.408a95.122 95.122 0 0 0-40 12.584v-30.464c12.497-4.418 19.046-18.131 14.627-30.627s-18.131-19.046-30.627-14.627C83.609 77.748 77.06 91.46 81.479 103.957a23.998 23.998 0 0 0 14.627 14.627v42.12a95.83 95.83 0 0 0-30.552 55.352h-18.92c-4.418-12.497-18.131-19.046-30.627-14.627S-3.039 219.56 1.38 232.056c4.418 12.497 18.131 19.046 30.627 14.627a23.998 23.998 0 0 0 14.627-14.627h17.472v32h-24a8 8 0 0 0-8 8v200a8 8 0 0 0 8 8h240a8 8 0 0 0 8-8V274.76a87.69 87.69 0 0 0 40 31.296v166a8 8 0 0 0 8 8h104a8 8 0 0 0 8-8v-32a8 8 0 0 0-8-8h-48v-16h24a8 8 0 0 0 8-8v-32a8 8 0 0 0-8-8h-24v-62c31.126-12.05 52.693-40.75 55.608-74h8.392a8 8 0 0 0 8-8v-97.472c12.473-4.393 19.023-18.066 14.629-30.538zm-94.629-79.99a8 8 0 1 1 0 16 8 8 0 0 1 0-16zm-360 16a8 8 0 1 1 0-16 8 8 0 0 1 0 16zm0 200a8 8 0 1 1 0-16 8 8 0 0 1 0 16zm80-144a8 8 0 1 1 0 16 8 8 0 0 1 0-16zm-24 144c0-44.183 35.817-80 80-80s80 35.817 80 80v32h-24v-32c0-30.928-25.072-56-56-56s-56 25.072-56 56v32h-24v-32zm120 0v32h-80v-32c0-22.091 17.909-40 40-40s40 17.909 40 40zm72 232h-224v-184h224v184zm88-384a8 8 0 1 1 0 16 8 8 0 0 1 0-16zm68.684 165.613a72.002 72.002 0 0 1-47.084 47.084 8 8 0 0 0-5.6 7.632v75.672a8 8 0 0 0 8 8h24v16h-24a8 8 0 0 0-8 8v32a8 8 0 0 0 8 8h48v16h-88V300.384a8 8 0 0 0-5.6-7.632c-37.933-11.929-59.013-52.351-47.084-90.284 11.929-37.933 52.351-59.013 90.284-47.084 37.933 11.93 59.013 52.352 47.084 90.285zm27.316-133.613a8 8 0 1 1 0-16 8 8 0 0 1 0 16z" fill="#FFF"/><path d="M304.106 48.056a8 8 0 0 0-5.656 2.344l-24 24a8 8 0 0 0-2.344 5.656v56h16V83.368l19.312-19.312h12.688v-16h-16zM184.106.056h16v96h-16zM53.106 137.808l-37-29.592v-44.16h-16v48a8 8 0 0 0 3 6.248l37 29.592v36.16h16v-40a8 8 0 0 0-3-6.248zM472.106.056h-48v16h40v48h16v-56a8 8 0 0 0-8-8z" fill="#FFF"/></svg>