<svg xmlns="http://www.w3.org/2000/svg" width="512" height="512"><path d="M59.376 75.356c-13.421 0-24.34 10.919-24.34 24.34 0 13.422 10.919 24.34 24.34 24.34s24.34-10.919 24.34-24.34c-.001-13.421-10.919-24.34-24.34-24.34zm0 33.472c-5.036 0-9.132-4.097-9.132-9.132s4.096-9.132 9.132-9.132 9.132 4.097 9.132 9.132c-.001 5.036-4.097 9.132-9.132 9.132zm56.345-33.472c-13.421 0-24.34 10.92-24.34 24.34 0 13.422 10.918 24.34 24.34 24.34 13.421 0 24.34-10.919 24.34-24.34s-10.919-24.34-24.34-24.34zm0 33.472c-5.036 0-9.132-4.097-9.132-9.132s4.096-9.132 9.132-9.132 9.132 4.097 9.132 9.132c0 5.036-4.096 9.132-9.132 9.132zm56.346-33.472c-13.421 0-24.34 10.919-24.34 24.34 0 13.422 10.92 24.34 24.34 24.34 13.422 0 24.341-10.919 24.341-24.34s-10.919-24.34-24.341-24.34zm0 33.472c-5.036 0-9.132-4.097-9.132-9.132s4.096-9.132 9.132-9.132 9.133 4.097 9.133 9.132c0 5.036-4.097 9.132-9.133 9.132z" fill="#FFF"/><path d="M256.006 3.067a7.603 7.603 0 0 0-7.604 7.604v40.483H40.108c-22.112 0-40.1 17.988-40.1 40.099v50.868c-.001.053-.008.104-.008.157s.007.104.008.157V402.94c0 22.111 17.988 40.099 40.1 40.099h208.294v58.29c0 4.2 3.404 7.604 7.604 7.604a7.603 7.603 0 0 0 7.604-7.604V10.671a7.603 7.603 0 0 0-7.604-7.604zm-7.604 131.608H96.753a7.603 7.603 0 0 0-7.604 7.604c0 4.2 3.404 7.604 7.604 7.604h151.649v277.948H40.108v-.001c-13.725 0-24.892-11.166-24.892-24.891V149.882h54.238a7.603 7.603 0 0 0 7.604-7.604c0-4.2-3.404-7.604-7.604-7.604H15.216v-43.42c0-13.725 11.167-24.891 24.892-24.891h208.294v68.312zm263.596-43.422c0-22.111-17.988-40.099-40.099-40.099H281.352a7.603 7.603 0 0 0-7.604 7.604c0 4.2 3.404 7.604 7.604 7.604h113.644v43.435H281.352a7.603 7.603 0 0 0-7.604 7.604c0 4.2 3.404 7.604 7.604 7.604H402.6a7.603 7.603 0 0 0 7.604-7.604V66.363h18.25v40.9c0 4.2 3.404 7.604 7.604 7.604h60.731v19.808H281.352a7.603 7.603 0 0 0-7.604 7.604c0 4.2 3.404 7.604 7.604 7.604h70.222v6.445l-28.233 28.232a24.236 24.236 0 0 0-10.977-2.61 24.183 24.183 0 0 0-17.212 7.13c-9.489 9.49-9.489 24.931 0 34.422 4.746 4.745 10.978 7.118 17.212 7.118 6.233 0 12.467-2.372 17.213-7.118 7.611-7.612 9.102-19.047 4.505-28.174l30.474-30.474a7.604 7.604 0 0 0 2.227-5.377v-9.594h10.977v88.887c-9.707 3.201-16.736 12.351-16.736 23.118 0 13.422 10.919 24.34 24.34 24.34 13.422 0 24.341-10.919 24.341-24.34 0-10.766-7.029-19.916-16.737-23.118v-88.888h13.434v57.754c0 2.017.801 3.951 2.227 5.377l30.474 30.474c-4.597 9.127-3.107 20.561 4.505 28.174 4.746 4.745 10.978 7.118 17.212 7.118s12.467-2.372 17.213-7.118c9.489-9.491 9.489-24.932 0-34.422-4.597-4.598-10.71-7.13-17.213-7.13-3.877 0-7.614.907-10.976 2.61l-28.233-28.232v-54.605h75.179v14.664h-53.634a7.603 7.603 0 0 0-7.604 7.604c0 4.2 3.404 7.604 7.604 7.604h53.634v14.671h-33.357a7.603 7.603 0 0 0-7.604 7.604c0 4.2 3.404 7.604 7.604 7.604h33.357V402.94c0 13.725-11.166 24.891-24.891 24.891h-3.476v-88.89c9.707-3.201 16.736-12.351 16.736-23.117 0-13.421-10.919-24.34-24.34-24.34-13.422 0-24.341 10.919-24.341 24.34 0 10.766 7.029 19.917 16.737 23.117v88.89H281.352a7.603 7.603 0 0 0-7.604 7.604c0 4.2 3.404 7.604 7.604 7.604h190.547c22.111 0 40.099-17.988 40.099-40.099V107.557c.004-.099 0-16.304 0-16.304zM318.822 212.748c-3.56 3.559-9.353 3.562-12.914 0-3.561-3.561-3.561-9.355 0-12.915a9.071 9.071 0 0 1 6.456-2.675 9.07 9.07 0 0 1 6.457 2.675c3.562 3.561 3.562 9.354.001 12.915zm75.675 49.139c0 5.035-4.097 9.132-9.133 9.132s-9.132-4.097-9.132-9.132c0-5.035 4.096-9.132 9.132-9.132s9.133 4.097 9.133 9.132zm59.866-13.895a9.071 9.071 0 0 1 6.456-2.675 9.07 9.07 0 0 1 6.457 2.675c3.561 3.561 3.561 9.354 0 12.915-3.56 3.559-9.353 3.562-12.914 0-3.56-3.561-3.56-9.355.001-12.915zm6.457 76.963c-5.036 0-9.133-4.097-9.133-9.132 0-5.035 4.097-9.132 9.133-9.132 5.036 0 9.132 4.097 9.132 9.132 0 5.036-4.096 9.132-9.132 9.132zm35.971-225.297h-53.128V66.363H471.9c13.725 0 24.891 11.166 24.891 24.891v8.404z" fill="#FFF"/><path d="M417.295 358.698c-10.765 0-19.916 7.029-23.117 16.736h-20.47v-14.701c0-4.2-3.404-7.604-7.604-7.604a7.603 7.603 0 0 0-7.604 7.604v14.701h-14.194v-14.701a7.604 7.604 0 0 0-15.208 0v14.701h-13.18v-14.701a7.604 7.604 0 0 0-15.208 0v14.701h-19.356a7.603 7.603 0 0 0-7.604 7.604c0 4.2 3.404 7.604 7.604 7.604H394.18c3.201 9.707 12.351 16.736 23.117 16.736 13.421 0 24.34-10.919 24.34-24.34-.001-13.422-10.921-24.34-24.342-24.34zm-.001 33.471c-5.036 0-9.132-4.097-9.132-9.132 0-5.035 4.096-9.132 9.132-9.132s9.132 4.097 9.132 9.132c0 5.035-4.096 9.132-9.132 9.132zm-31.93-94.047c-10.765 0-19.916 7.029-23.118 16.736h-42.278v-29.854c9.708-3.201 16.737-12.351 16.737-23.117 0-13.421-10.919-24.34-24.341-24.34-13.421 0-24.34 10.92-24.34 24.34 0 10.766 7.028 19.917 16.736 23.117v29.855h-23.409v-.001a7.604 7.604 0 0 0 0 15.208h80.895c3.202 9.708 12.351 16.736 23.118 16.736 13.422 0 24.341-10.919 24.341-24.34s-10.919-24.34-24.341-24.34zm-72.999-27.103c-5.036 0-9.132-4.097-9.132-9.132 0-5.036 4.096-9.132 9.132-9.132s9.133 4.097 9.133 9.132c0 5.035-4.097 9.132-9.133 9.132zm72.999 60.575c-5.036 0-9.132-4.097-9.132-9.132 0-5.035 4.096-9.132 9.132-9.132s9.133 4.097 9.133 9.132c0 5.035-4.097 9.132-9.133 9.132zM373.198 79.381h-91.846a7.604 7.604 0 0 0 0 15.208h91.846a7.603 7.603 0 0 0 7.604-7.604c0-4.2-3.404-7.604-7.604-7.604z" fill="#FFF"/></svg>